<svg xmlns="http://www.w3.org/2000/svg" width="36.563" height="29.25" viewBox="0 0 36.563 29.25">
  <path id="Icon_awesome-user-check" data-name="Icon awesome-user-check" d="M12.8,14.625A7.313,7.313,0,1,0,5.484,7.313,7.312,7.312,0,0,0,12.8,14.625Zm5.119,1.828h-.954a9.945,9.945,0,0,1-8.329,0H7.678A7.68,7.68,0,0,0,0,24.131v2.377A2.743,2.743,0,0,0,2.742,29.25H22.852a2.743,2.743,0,0,0,2.742-2.742V24.131A7.68,7.68,0,0,0,17.916,16.453ZM36.368,9.118,34.78,7.512a.678.678,0,0,0-.96-.006l-5.987,5.941-2.6-2.617a.678.678,0,0,0-.96-.006L22.669,12.42a.678.678,0,0,0-.006.96l4.667,4.7a.678.678,0,0,0,.96.006l8.072-8.009a.683.683,0,0,0,.006-.96Z" fill="#181818"/>
</svg>
