<svg xmlns="http://www.w3.org/2000/svg" width="20" height="15.553" viewBox="0 0 20 15.553">
  <path id="Icon_awesome-home" data-name="Icon awesome-home" d="M9.734,6.288l-6.4,5.272v5.69a.556.556,0,0,0,.556.556l3.891-.01a.556.556,0,0,0,.553-.556V13.918a.556.556,0,0,1,.556-.556h2.222a.556.556,0,0,1,.556.556v3.321a.556.556,0,0,0,.556.557l3.889.011a.556.556,0,0,0,.556-.556V11.557l-6.4-5.268A.423.423,0,0,0,9.734,6.288ZM19.845,9.872l-2.9-2.393V2.67a.417.417,0,0,0-.417-.417H14.582a.417.417,0,0,0-.417.417V5.191L11.057,2.634a1.667,1.667,0,0,0-2.118,0L.15,9.872a.417.417,0,0,0-.056.587L.98,11.535a.417.417,0,0,0,.587.057L9.734,4.865a.423.423,0,0,1,.531,0l8.167,6.727a.417.417,0,0,0,.587-.056l.885-1.076a.417.417,0,0,0-.059-.588Z" transform="translate(0.001 -2.254)" fill="#454545"/>
</svg>
