<svg xmlns="http://www.w3.org/2000/svg" width="24.25" height="24.25" viewBox="0 0 24.25 24.25">
  <g id="Group_32" data-name="Group 32" transform="translate(-15 -15.75)">
    <rect id="Rectangle_10" data-name="Rectangle 10" width="24" height="24" rx="12" transform="translate(15 16)" fill="#fff"/>
    <g id="Icon_ionic-ios-arrow-dropleft" data-name="Icon ionic-ios-arrow-dropleft" transform="translate(11.625 12.375)">
      <path id="Path_1" data-name="Path 1" d="M19.643,10.311a1.129,1.129,0,0,0-1.591,0L12.49,15.889a1.124,1.124,0,0,0-.035,1.551l5.48,5.5a1.123,1.123,0,1,0,1.591-1.586L14.874,16.63,19.649,11.9A1.124,1.124,0,0,0,19.643,10.311Z" transform="translate(-1.502 -1.13)"/>
      <path id="Path_2" data-name="Path 2" d="M15.5,3.375A12.125,12.125,0,1,0,27.625,15.5,12.123,12.123,0,0,0,15.5,3.375Zm7.252,19.377a10.255,10.255,0,1,1-14.5-14.5,10.255,10.255,0,1,1,14.5,14.5Z"/>
    </g>
  </g>
</svg>
