<svg xmlns="http://www.w3.org/2000/svg" width="22.2" height="15" viewBox="0 0 22.2 15">
  <g id="Group_64" data-name="Group 64" transform="translate(-137 -455.579)">
    <path id="Icon_awesome-motorcycle" data-name="Icon awesome-motorcycle" d="M16.008,8.5a3.949,3.949,0,0,0-1.323.215L13.657,7h2.572a.747.747,0,0,0,.749-.749v-1a.747.747,0,0,0-.749-.749H14.815a.749.749,0,0,0-.556.247l-1.17,1.3-.712-1.186a.754.754,0,0,0-.643-.362h-2.5a.5.5,0,0,0-.5.5v.5a.5.5,0,0,0,.5.5H11.31l.6,1h-4.8A3.52,3.52,0,0,0,3.994,5.749H2.262a.76.76,0,0,0-.765.765.748.748,0,0,0,.749.734H3.994a1.653,1.653,0,0,1,1.492.774l-.353.64a4,4,0,1,0,2.731,4.829h2.628a.75.75,0,0,0,.749-.783A4.728,4.728,0,0,1,13,8.8l.39.649A4,4,0,1,0,16.008,8.5ZM3.994,14.987a2.5,2.5,0,1,1,0-4.994,2.322,2.322,0,0,1,.39.031l-1.3,2.353a.75.75,0,0,0,.655,1.111H6.282A2.5,2.5,0,0,1,3.994,14.987Zm14.48-2.36a2.5,2.5,0,0,1-4.991-.137,2.477,2.477,0,0,1,.69-1.72l1.542,2.572a.5.5,0,0,0,.687.172l.428-.256A.5.5,0,0,0,17,12.572l-1.517-2.525a2.39,2.39,0,0,1,.5-.05,2.5,2.5,0,0,1,2.494,2.631Z" transform="translate(139.222 454.094)" fill="#28b873"/>
    <rect id="Rectangle_59" data-name="Rectangle 59" width="9" height="7" rx="2" transform="translate(137 455.579)" fill="#28b873"/>
  </g>
</svg>
