<svg id="calendar" xmlns="http://www.w3.org/2000/svg" width="13.408" height="11.948" viewBox="0 0 13.408 11.948">
  <g id="Group_83" data-name="Group 83" transform="translate(0 0)">
    <g id="Group_82" data-name="Group 82">
      <path id="Path_24" data-name="Path 24" d="M12.017,21.916h-.842v-.667a.349.349,0,1,0-.7,0v.667H7.055v-.667a.349.349,0,1,0-.7,0v.667H2.9v-.667a.349.349,0,1,0-.7,0v.667H1.393A1.413,1.413,0,0,0,0,23.331v8.12a1.394,1.394,0,0,0,1.393,1.4H12.014a1.393,1.393,0,0,0,1.393-1.393V23.331A1.408,1.408,0,0,0,12.017,21.916Zm.695,9.534a.7.7,0,0,1-.692.7H1.393A.7.7,0,0,1,.7,31.454V23.331a.71.71,0,0,1,.695-.716H2.2v.506a.349.349,0,0,0,.7,0v-.506H6.356v.506a.349.349,0,0,0,.7,0v-.506h3.423v.506a.349.349,0,0,0,.7,0v-.506h.842a.71.71,0,0,1,.695.716Z" transform="translate(0 -20.9)" fill="#fff"/>
    </g>
  </g>
  <g id="Group_85" data-name="Group 85" transform="translate(4.827 3.985)">
    <g id="Group_84" data-name="Group 84">
      <path id="Path_25" data-name="Path 25" d="M139.16,135h-.611a.349.349,0,0,0,0,.7h.611a.349.349,0,0,0,0-.7Z" transform="translate(-138.2 -135)" fill="#fff"/>
    </g>
  </g>
  <g id="Group_87" data-name="Group 87" transform="translate(7.257 3.985)">
    <g id="Group_86" data-name="Group 86">
      <path id="Path_26" data-name="Path 26" d="M208.76,135h-.611a.349.349,0,1,0,0,.7h.611a.349.349,0,1,0,0-.7Z" transform="translate(-207.8 -135)" fill="#fff"/>
    </g>
  </g>
  <g id="Group_89" data-name="Group 89" transform="translate(9.709 3.985)">
    <g id="Group_88" data-name="Group 88">
      <path id="Path_27" data-name="Path 27" d="M278.96,135h-.611a.349.349,0,0,0,0,.7h.611a.349.349,0,0,0,0-.7Z" transform="translate(-278 -135)" fill="#fff"/>
    </g>
  </g>
  <g id="Group_91" data-name="Group 91" transform="translate(4.827 6.395)">
    <g id="Group_90" data-name="Group 90">
      <path id="Path_28" data-name="Path 28" d="M139.16,204h-.611a.349.349,0,0,0,0,.7h.611a.349.349,0,0,0,0-.7Z" transform="translate(-138.2 -204)" fill="#fff"/>
    </g>
  </g>
  <g id="Group_93" data-name="Group 93" transform="translate(2.375 6.395)">
    <g id="Group_92" data-name="Group 92">
      <path id="Path_29" data-name="Path 29" d="M68.964,204h-.615a.349.349,0,0,0,0,.7h.611a.349.349,0,0,0,0-.7Z" transform="translate(-68 -204)" fill="#fff"/>
    </g>
  </g>
  <g id="Group_95" data-name="Group 95" transform="translate(7.257 6.395)">
    <g id="Group_94" data-name="Group 94">
      <path id="Path_30" data-name="Path 30" d="M208.76,204h-.611a.349.349,0,1,0,0,.7h.611a.349.349,0,1,0,0-.7Z" transform="translate(-207.8 -204)" fill="#fff"/>
    </g>
  </g>
  <g id="Group_97" data-name="Group 97" transform="translate(9.709 6.395)">
    <g id="Group_96" data-name="Group 96">
      <path id="Path_31" data-name="Path 31" d="M278.96,204h-.611a.349.349,0,0,0,0,.7h.611a.349.349,0,0,0,0-.7Z" transform="translate(-278 -204)" fill="#fff"/>
    </g>
  </g>
  <g id="Group_99" data-name="Group 99" transform="translate(4.827 8.77)">
    <g id="Group_98" data-name="Group 98">
      <path id="Path_32" data-name="Path 32" d="M139.16,272h-.611a.349.349,0,0,0,0,.7h.611a.349.349,0,0,0,0-.7Z" transform="translate(-138.2 -272)" fill="#fff"/>
    </g>
  </g>
  <g id="Group_101" data-name="Group 101" transform="translate(2.375 8.77)">
    <g id="Group_100" data-name="Group 100">
      <path id="Path_33" data-name="Path 33" d="M68.964,272h-.615a.349.349,0,0,0,0,.7h.611a.349.349,0,0,0,0-.7Z" transform="translate(-68 -272)" fill="#fff"/>
    </g>
  </g>
  <g id="Group_103" data-name="Group 103" transform="translate(7.257 8.77)">
    <g id="Group_102" data-name="Group 102">
      <path id="Path_34" data-name="Path 34" d="M208.76,272h-.611a.349.349,0,1,0,0,.7h.611a.349.349,0,1,0,0-.7Z" transform="translate(-207.8 -272)" fill="#fff"/>
    </g>
  </g>
</svg>
