<svg xmlns="http://www.w3.org/2000/svg" width="17.267" height="12.333" viewBox="0 0 17.267 12.333">
  <g id="Icon_ionic-md-cash" data-name="Icon ionic-md-cash" transform="translate(-2.25 -6.75)">
    <path id="Path_8" data-name="Path 8" d="M2.25,6.75v9.867H19.517V6.75Zm6.186,8.633h-3.1a1.852,1.852,0,0,0-1.854-1.854V10.45A2.469,2.469,0,0,0,5.95,7.983H8.436a5.755,5.755,0,0,0-1.253,3.7A5.755,5.755,0,0,0,8.436,15.383Zm9.847-1.854a1.864,1.864,0,0,0-1.85,1.854h-3.1a5.755,5.755,0,0,0,1.253-3.7,5.755,5.755,0,0,0-1.253-3.7h2.486a2.469,2.469,0,0,0,2.467,2.467Z" fill="#28b873"/>
    <path id="Path_9" data-name="Path 9" d="M2.25,27H19.517v1.233H2.25Z" transform="translate(0 -9.15)" fill="#28b873"/>
  </g>
</svg>
