<svg xmlns="http://www.w3.org/2000/svg" width="25" height="25" viewBox="0 0 25 25">
  <g id="Group_106" data-name="Group 106" transform="translate(0.002 -355.856)">
    <circle id="Ellipse_25" data-name="Ellipse 25" cx="12.5" cy="12.5" r="12.5" transform="translate(-0.002 355.856)" fill="#28b873"/>
    <g id="clock" transform="translate(2.998 358.856)">
      <g id="Group_108" data-name="Group 108">
        <g id="Group_107" data-name="Group 107">
          <path id="Path_36" data-name="Path 36" d="M9.85,0A9.85,9.85,0,1,0,19.7,9.85,9.85,9.85,0,0,0,9.85,0Zm0,18.292A8.443,8.443,0,1,1,18.292,9.85,8.443,8.443,0,0,1,9.85,18.292Z" fill="#fff"/>
        </g>
      </g>
      <g id="Group_110" data-name="Group 110" transform="translate(3.518 3.518)">
        <g id="Group_109" data-name="Group 109">
          <path id="Path_37" data-name="Path 37" d="M91.665,85.333a.7.7,0,0,0-.7.7v4.925H86.037a.7.7,0,1,0,0,1.407h5.628a.7.7,0,0,0,.7-.7V86.037A.7.7,0,0,0,91.665,85.333Z" transform="translate(-85.333 -85.333)" fill="#fff"/>
        </g>
      </g>
    </g>
  </g>
</svg>
