<svg xmlns="http://www.w3.org/2000/svg" width="25.75" height="25.75" viewBox="0 0 25.75 25.75">
  <g id="Icon_ionic-ios-arrow-dropdown" data-name="Icon ionic-ios-arrow-dropdown" transform="translate(-3.375 -3.375)">
    <path id="Path_12" data-name="Path 12" d="M10.331,14.767a1.2,1.2,0,0,0,0,1.69l5.924,5.905A1.193,1.193,0,0,0,17.9,22.4l5.837-5.819a1.193,1.193,0,1,0-1.684-1.69l-5.014,4.94-5.02-5.07A1.194,1.194,0,0,0,10.331,14.767Z" transform="translate(-0.791 -1.321)"/>
    <path id="Path_13" data-name="Path 13" d="M3.375,16.25A12.875,12.875,0,1,0,16.25,3.375,12.873,12.873,0,0,0,3.375,16.25ZM23.95,8.55a10.89,10.89,0,1,1-15.4,15.4,10.89,10.89,0,1,1,15.4-15.4Z"/>
  </g>
</svg>
