<svg xmlns="http://www.w3.org/2000/svg" width="22.2" height="22.2" viewBox="0 0 22.2 22.2">
  <path id="Icon_ionic-md-help-circle" data-name="Icon ionic-md-help-circle" d="M14.475,3.375a11.1,11.1,0,1,0,11.1,11.1A11.105,11.105,0,0,0,14.475,3.375ZM15.6,21.146H13.354V18.9H15.6Zm-.011-3.362h-2.22c0-3.575,3.33-3.319,3.33-5.539a2.23,2.23,0,0,0-2.22-2.225,2.252,2.252,0,0,0-2.22,2.215h-2.22a4.44,4.44,0,0,1,8.88.005C18.915,15.014,15.585,15.329,15.585,17.784Z" transform="translate(-3.375 -3.375)" fill="#28b873"/>
</svg>
