<svg xmlns="http://www.w3.org/2000/svg" width="20" height="14.286" viewBox="0 0 20 14.286">
  <g id="Icon_ionic-ios-card" data-name="Icon ionic-ios-card" transform="translate(-2.25 -6.75)">
    <path id="Path_16" data-name="Path 16" d="M22.25,9c0-1.238-.643-2.25-1.429-2.25H3.679C2.893,6.75,2.25,7.762,2.25,9v3.375h20Z" fill="#28b873"/>
    <path id="Path_17" data-name="Path 17" d="M2.25,27c0,1.237.643,2.25,1.429,2.25H20.821c.786,0,1.429-1.013,1.429-2.25V15.75h-20Zm6.339-3.375h7.321c.344,0,.625.443.625.984h0c0,.541-.281.984-.625.984H8.589c-.344,0-.625-.443-.625-.984h0C7.964,24.068,8.246,23.625,8.589,23.625Zm-3.214,0h.536c.344,0,.625.443.625.984h0c0,.541-.281.984-.625.984H5.375c-.344,0-.625-.443-.625-.984h0C4.75,24.068,5.031,23.625,5.375,23.625Z" transform="translate(0 -8.214)" fill="#28b873"/>
  </g>
</svg>
