<svg xmlns="http://www.w3.org/2000/svg" width="28.5" height="28.5" viewBox="0 0 28.5 28.5">
  <path id="Icon_material-help" data-name="Icon material-help" d="M17.25,3A14.25,14.25,0,1,0,31.5,17.25,14.255,14.255,0,0,0,17.25,3Zm1.425,24.225h-2.85v-2.85h2.85Zm2.95-11.044-1.282,1.311a4.851,4.851,0,0,0-1.667,4.033h-2.85v-.712a5.736,5.736,0,0,1,1.667-4.033l1.767-1.8a2.786,2.786,0,0,0,.841-2.009,2.85,2.85,0,1,0-5.7,0H11.55a5.7,5.7,0,0,1,11.4,0A4.534,4.534,0,0,1,21.625,16.181Z" transform="translate(-3 -3)"/>
</svg>
