<svg xmlns="http://www.w3.org/2000/svg" width="15.618" height="17.849" viewBox="0 0 15.618 17.849">
  <path id="Icon_metro-attachment" data-name="Icon metro-attachment" d="M14.583,7.629,13.45,6.5l-5.662,5.66a2.4,2.4,0,0,0,3.4,3.4L17.98,8.761A4,4,0,0,0,12.318,3.1L5.185,10.233l-.015.015a5.583,5.583,0,0,0,7.9,7.894l.014-.015h0l4.869-4.868-1.133-1.132L11.948,17l-.015.015A3.981,3.981,0,0,1,6.3,11.38l.015-.015h0l7.134-7.132a2.4,2.4,0,1,1,3.4,3.4l-6.794,6.793A.8.8,0,0,1,8.921,13.29l5.661-5.661Z" transform="translate(-3.535 -1.928)" fill="#fff"/>
</svg>
