<svg xmlns="http://www.w3.org/2000/svg" width="15.5" height="15.5" viewBox="0 0 15.5 15.5">
  <path id="Icon_material-my-location" data-name="Icon material-my-location" d="M9.25,6.432A2.818,2.818,0,1,0,12.068,9.25,2.817,2.817,0,0,0,9.25,6.432Zm6.3,2.114A6.337,6.337,0,0,0,9.955,2.951V1.5H8.545V2.951A6.337,6.337,0,0,0,2.951,8.545H1.5V9.955H2.951a6.337,6.337,0,0,0,5.594,5.594V17H9.955V15.549a6.337,6.337,0,0,0,5.594-5.594H17V8.545Zm-6.3,5.636A4.932,4.932,0,1,1,14.182,9.25,4.928,4.928,0,0,1,9.25,14.182Z" transform="translate(-1.5 -1.5)"/>
</svg>
