<svg xmlns="http://www.w3.org/2000/svg" width="28" height="24.545" viewBox="0 0 28 24.545">
  <path id="Icon_map-food" data-name="Icon map-food" d="M28.658,9.376l-2.3,17.993H18.61L16.324,9.286h9.465l1.871-6.462,1.06.32L26.925,9.363l1.733.013ZM15.227,19.786s.29-2.333-3.73-2.333h-6.4c-4.014,0-3.73,2.333-3.73,2.333ZM1.364,25.036s-.284,2.333,3.73,2.333h6.4c4.02,0,3.73-2.333,3.73-2.333H1.364Zm13.262-1.167a1.342,1.342,0,0,0,1.189-1.458,1.34,1.34,0,0,0-1.189-1.459H1.91A1.342,1.342,0,0,0,.72,22.412a1.344,1.344,0,0,0,1.19,1.458H14.626Z" transform="translate(-0.72 -2.825)" fill="#28b873"/>
</svg>
