<svg xmlns="http://www.w3.org/2000/svg" width="15" height="15" viewBox="0 0 15 15">
  <path id="Icon_material-local-offer" data-name="Icon material-local-offer" d="M17.558,10.185l-6.75-6.75A1.491,1.491,0,0,0,9.75,3H4.5A1.5,1.5,0,0,0,3,4.5V9.75a1.5,1.5,0,0,0,.443,1.065l6.75,6.75A1.491,1.491,0,0,0,11.25,18a1.466,1.466,0,0,0,1.057-.442l5.25-5.25A1.466,1.466,0,0,0,18,11.25a1.515,1.515,0,0,0-.442-1.065ZM5.625,6.75A1.125,1.125,0,1,1,6.75,5.625,1.123,1.123,0,0,1,5.625,6.75Z" transform="translate(-3 -3)"/>
</svg>
