<svg xmlns="http://www.w3.org/2000/svg" width="25" height="25" viewBox="0 0 25 25">
  <g id="Group_58" data-name="Group 58" transform="translate(-335 -94)">
    <circle id="Ellipse_12" data-name="Ellipse 12" cx="12.5" cy="12.5" r="12.5" transform="translate(335 94)" fill="#28b873"/>
    <path id="Icon_awesome-store" data-name="Icon awesome-store" d="M12.22,2.407,10.9.3a.65.65,0,0,0-.55-.3h-8.2A.65.65,0,0,0,1.6.3L.287,2.407A1.811,1.811,0,0,0,1.48,5.175a2.109,2.109,0,0,0,.278.018,2,2,0,0,0,1.5-.672,2.006,2.006,0,0,0,3,0,2.006,2.006,0,0,0,3,0,2.011,2.011,0,0,0,1.5.672,2.086,2.086,0,0,0,.278-.018A1.809,1.809,0,0,0,12.22,2.407ZM10.749,5.845a2.575,2.575,0,0,1-.6-.077V7.793H2.357V5.768a2.689,2.689,0,0,1-.6.077,2.738,2.738,0,0,1-.365-.024,2.552,2.552,0,0,1-.333-.073V9.741a.649.649,0,0,0,.649.649H10.8a.649.649,0,0,0,.649-.649V5.747a2.072,2.072,0,0,1-.333.073A2.822,2.822,0,0,1,10.749,5.845Z" transform="translate(340.996 101.609)" fill="#fff"/>
  </g>
</svg>
