<svg xmlns="http://www.w3.org/2000/svg" width="70" height="70" viewBox="0 0 70 70">
  <path id="Icon_awesome-user-circle" data-name="Icon awesome-user-circle" d="M35,.563a35,35,0,1,0,35,35A34.994,34.994,0,0,0,35,.563Zm0,13.548A12.419,12.419,0,1,1,22.581,26.53,12.42,12.42,0,0,1,35,14.111Zm0,48.548a27.044,27.044,0,0,1-20.675-9.625,15.735,15.735,0,0,1,13.9-8.44,3.453,3.453,0,0,1,1,.155A18.686,18.686,0,0,0,35,45.724a18.615,18.615,0,0,0,5.772-.974,3.453,3.453,0,0,1,1-.155,15.735,15.735,0,0,1,13.9,8.44A27.044,27.044,0,0,1,35,62.659Z" transform="translate(0 -0.563)" fill="#b8b8b8"/>
</svg>
